<svg width="24" height="27" viewBox="0 0 24 27" fill="none" xmlns="http://www.w3.org/2000/svg">
<path d="M12.0066 0C15.5799 0 18.5176 2.80788 18.6667 6.36577H18.6318C18.636 6.46919 18.6161 6.57217 18.5738 6.66667H18.7819C20.4046 6.66667 22.1038 7.79135 22.7851 10.5064L22.8592 10.8268L23.8843 19.0863C24.6221 24.3543 21.7399 26.5697 17.8083 26.6635L17.5446 26.6667H6.49137C2.4957 26.6667 -0.583274 25.2106 0.0937078 19.4447L0.139873 19.0863L1.17685 10.8268C1.68819 7.90291 3.40481 6.74966 5.05883 6.67102L5.24228 6.66667H5.34652C5.32894 6.56713 5.32894 6.4653 5.34652 6.36577C5.49563 2.80788 8.43333 0 12.0066 0ZM8.12933 11.1057C7.47852 11.1057 6.95094 11.6487 6.95094 12.3186C6.95094 12.9884 7.47852 13.5314 8.12933 13.5314C8.78013 13.5314 9.30772 12.9884 9.30772 12.3186L9.29853 12.1664C9.22582 11.5684 8.73007 11.1057 8.12933 11.1057ZM15.8478 11.1057C15.197 11.1057 14.6694 11.6487 14.6694 12.3186C14.6694 12.9884 15.197 13.5314 15.8478 13.5314C16.4986 13.5314 17.0261 12.9884 17.0261 12.3186C17.0261 11.6487 16.4986 11.1057 15.8478 11.1057ZM11.9543 1.73651C9.38885 1.73651 7.30912 3.8091 7.30912 6.36577C7.3267 6.4653 7.3267 6.56713 7.30912 6.66667H16.6576C16.6205 6.57059 16.6008 6.46871 16.5995 6.36577C16.5995 3.8091 14.5198 1.73651 11.9543 1.73651Z" fill="white"/>
</svg>
