<svg width="18" height="16" viewBox="0 0 18 16" fill="none" xmlns="http://www.w3.org/2000/svg">
<path d="M0.686752 11.4529H5.48382M12.4485 11.4529H17.2429M14.6161 5.40794H13.8419M2.91996 3.56529V1.93505M17.117 6.31135L17.096 6.29344C16.9362 5.69085 16.6499 5.12719 16.2551 4.63819C15.8602 4.14918 15.3656 3.74548 14.8024 3.45268C14.1954 3.15403 13.5528 2.92968 12.8894 2.78472L12.8579 2.57486C12.8487 2.32379 12.7982 2.07579 12.7083 1.84036C12.6163 1.61186 12.4749 1.40535 12.2938 1.23489C12.1127 1.06442 11.896 0.934002 11.6586 0.852492C10.8517 0.58938 10.0026 0.47145 9.15248 0.504439H8.80606C7.95597 0.47145 7.10682 0.58938 6.29996 0.852492C6.06227 0.933551 5.84537 1.06381 5.66418 1.23433C5.48299 1.40485 5.3418 1.6116 5.25027 1.84036C5.16276 2.06305 5.11311 2.29818 5.1033 2.53648L5.03507 2.7924C4.38283 2.93755 3.75106 3.15926 3.15353 3.45268C2.59074 3.74599 2.09637 4.14984 1.70162 4.63877C1.30687 5.1277 1.0203 5.6911 0.859964 6.29344L0.841576 6.31135C0.586142 7.2115 0.473739 8.14452 0.508296 9.07789C0.462361 10.0612 0.582938 11.0452 0.865185 11.9903C1.50812 14.3115 4.14546 15.1638 6.80904 15.4248H6.88252L7.16593 15.4504L7.38376 15.4658H7.5176L7.76426 15.4811H7.843L8.30223 15.499H9.68257L10.1418 15.4811H10.2179L10.4803 15.4658H10.6142L10.8294 15.4504L11.1128 15.4248H11.1862C13.8524 15.1689 16.4898 14.3115 17.1301 11.9903C17.4132 11.0454 17.5347 10.0614 17.4896 9.07789C17.5101 8.14261 17.3845 7.20973 17.117 6.31135ZM8.96616 13.0114C8.96616 13.0114 11.8895 13.2213 12.9025 10.5853C13.3039 9.54516 13.3039 8.3982 12.9025 7.35808C11.8764 4.72206 8.96616 4.93192 8.96616 4.93192C8.96616 4.93192 6.04278 4.72206 5.02983 7.35808C4.62844 8.3982 4.62844 9.54516 5.02983 10.5853C6.04278 13.2213 8.96616 13.0114 8.96616 13.0114ZM8.96618 10.4445C8.96618 10.4445 10.0316 10.5213 10.4069 9.56159C10.5512 9.18179 10.5512 8.76414 10.4069 8.38434C10.0316 7.42206 8.96618 7.49883 8.96618 7.49883C8.96618 7.49883 7.90071 7.42206 7.52545 8.38434C7.37855 8.76368 7.37855 9.18225 7.52545 9.56159C7.90071 10.5213 8.96618 10.4445 8.96618 10.4445Z" stroke="#F8F8F8" stroke-width="0.997761" stroke-linecap="round" stroke-linejoin="round"/>
</svg>
